ply
format ascii 1.0
comment Created by Blender 2.61 (sub 0) - www.blender.org, source file: 'mur trois.blend'
element vertex 70
property float x
property float y
property float z
property float nx
property float ny
property float nz
element face 22
property list uchar uint vertex_indices
end_header
0.999999 -1.000001 1.000000 -0.000000 -1.000000 -0.000000
0.599999 -1.000000 1.000000 -0.000000 -1.000000 -0.000000
0.600000 -1.000000 -1.000000 -0.000000 -1.000000 -0.000000
1.000000 -1.000000 -1.000000 -0.000000 -1.000000 -0.000000
1.000000 1.000000 -1.000000 0.000000 1.000000 0.000000
0.600000 1.000000 -1.000000 0.000000 1.000000 0.000000
0.600000 1.000000 1.000000 0.000000 1.000000 0.000000
1.000000 0.999999 1.000000 0.000000 1.000000 0.000000
1.000000 -0.600000 -1.000000 1.000000 -0.000000 -0.000000
1.000000 1.000000 -1.000000 1.000000 -0.000000 -0.000000
1.000000 0.999999 1.000000 1.000000 -0.000000 -0.000000
1.000000 -0.600001 1.000000 1.000000 -0.000000 -0.000000
0.999999 -1.000001 1.000000 1.000000 -0.000000 0.000000
1.000000 -1.000000 -1.000000 1.000000 -0.000000 0.000000
0.600000 -1.000000 -1.000000 -0.000000 0.000000 -1.000000
0.600000 -0.600000 -1.000000 -0.000000 0.000000 -1.000000
1.000000 -0.600000 -1.000000 -0.000000 0.000000 -1.000000
1.000000 -1.000000 -1.000000 -0.000000 0.000000 -1.000000
1.000000 1.000000 -1.000000 0.000000 0.000000 -1.000000
0.600000 1.000000 -1.000000 0.000000 0.000000 -1.000000
0.600000 1.000000 1.000000 0.000000 0.000000 1.000000
0.600000 -0.600001 1.000000 0.000000 0.000000 1.000000
1.000000 -0.600001 1.000000 0.000000 0.000000 1.000000
1.000000 0.999999 1.000000 0.000000 0.000000 1.000000
0.599999 -1.000000 1.000000 0.000000 0.000000 1.000000
0.999999 -1.000001 1.000000 0.000000 0.000000 1.000000
-0.600000 -0.600001 1.000000 0.000000 0.000000 -1.000000
-0.600000 -1.000000 1.000000 0.000000 0.000000 -1.000000
-1.000000 -1.000001 1.000000 0.000000 0.000000 -1.000000
-1.000000 -0.600001 1.000000 0.000000 0.000000 -1.000000
-0.600001 1.000000 1.000000 0.000000 0.000000 -1.000000
-1.000001 0.999999 1.000000 0.000000 0.000000 -1.000000
-0.600000 -0.600000 -1.000000 -0.000000 0.000000 1.000000
-0.600000 1.000000 -1.000000 -0.000000 0.000000 1.000000
-1.000000 1.000000 -1.000000 -0.000000 0.000000 1.000000
-1.000000 -0.600000 -1.000000 -0.000000 0.000000 1.000000
-0.600000 -1.000000 -1.000000 -0.000000 0.000000 1.000000
-1.000000 -1.000000 -1.000000 -0.000000 0.000000 1.000000
-1.000000 -0.600001 1.000000 1.000000 0.000000 -0.000000
-1.000000 -1.000001 1.000000 1.000000 0.000000 -0.000000
-1.000000 -1.000000 -1.000000 1.000000 0.000000 -0.000000
-1.000000 -0.600000 -1.000000 1.000000 0.000000 -0.000000
-1.000001 0.999999 1.000000 1.000000 0.000000 0.000000
-1.000000 1.000000 -1.000000 1.000000 0.000000 0.000000
-1.000000 1.000000 -1.000000 0.000000 -1.000000 -0.000000
-0.600000 1.000000 -1.000000 0.000000 -1.000000 -0.000000
-0.600001 1.000000 1.000000 0.000000 -1.000000 -0.000000
-1.000001 0.999999 1.000000 0.000000 -1.000000 -0.000000
-1.000000 -1.000001 1.000000 -0.000000 1.000000 0.000000
-0.600000 -1.000000 1.000000 -0.000000 1.000000 0.000000
-0.600000 -1.000000 -1.000000 -0.000000 1.000000 0.000000
-1.000000 -1.000000 -1.000000 -0.000000 1.000000 0.000000
0.600000 -0.600000 -1.000000 0.000000 -1.000000 -0.000000
0.600000 -0.600001 1.000000 0.000000 -1.000000 -0.000000
-0.600000 -0.600001 1.000000 0.000000 -1.000000 -0.000000
-0.600000 -0.600000 -1.000000 0.000000 -1.000000 -0.000000
-0.600000 -1.000000 1.000000 0.000000 -1.000000 -0.000000
-0.600000 -1.000000 -1.000000 0.000000 -1.000000 -0.000000
-0.600000 -0.600001 1.000000 -1.000000 -0.000000 0.000000
-0.600001 1.000000 1.000000 -1.000000 -0.000000 0.000000
-0.600000 1.000000 -1.000000 -1.000000 -0.000000 0.000000
-0.600000 -0.600000 -1.000000 -1.000000 -0.000000 0.000000
0.600000 1.000000 -1.000000 -1.000000 0.000000 -0.000000
0.600000 -0.600000 -1.000000 -1.000000 0.000000 -0.000000
0.600000 -0.600001 1.000000 -1.000000 0.000000 -0.000000
0.600000 1.000000 1.000000 -1.000000 0.000000 -0.000000
-0.600000 -0.600001 1.000000 -0.000000 0.000000 1.000000
-0.600000 -1.000000 1.000000 -0.000000 0.000000 1.000000
0.600000 -1.000000 -1.000000 -0.000000 0.000000 1.000000
0.600000 -0.600000 -1.000000 -0.000000 0.000000 1.000000
4 0 1 2 3
4 4 5 6 7
4 8 9 10 11
4 11 12 13 8
4 14 15 16 17
4 18 16 15 19
4 20 21 22 23
4 21 24 25 22
4 26 27 28 29
4 30 26 29 31
4 32 33 34 35
4 36 32 35 37
4 38 39 40 41
4 42 38 41 43
4 44 45 46 47
4 48 49 50 51
4 52 53 54 55
4 2 1 56 57
4 58 59 60 61
4 62 63 64 65
4 24 21 66 67
4 68 69 32 36
